<?xml version="1.0" encoding="UTF-8" standalone="no"?>
<svg
   xmlns:dc="http://purl.org/dc/elements/1.1/"
   xmlns:cc="http://creativecommons.org/ns#"
   xmlns:rdf="http://www.w3.org/1999/02/22-rdf-syntax-ns#"
   xmlns:svg="http://www.w3.org/2000/svg"
   xmlns="http://www.w3.org/2000/svg"
   viewBox="0 0 680.32001 226.77333"
   height="226.77333"
   width="680.32001"
   xml:space="preserve"
   id="svg2"
   version="1.1"><metadata
     id="metadata8"><rdf:RDF><cc:Work
         rdf:about=""><dc:format>image/svg+xml</dc:format><dc:type
           rdf:resource="http://purl.org/dc/dcmitype/StillImage" /></cc:Work></rdf:RDF></metadata><defs
     id="defs6" /><g
     transform="matrix(1.3333333,0,0,-1.3333333,0,226.77333)"
     id="g10"><g
       transform="scale(0.1)"
       id="g12"><!-- <path
         id="path14"
         style="fill:#2f4ba6;fill-opacity:1;fill-rule:nonzero;stroke:none"
         d="M 5102.36,0 H 0 V 1700.79 H 5102.36 V 0" /> --><path
         id="path16"
         style="fill:none;stroke:#ffffff;stroke-width:10;stroke-linecap:butt;stroke-linejoin:miter;stroke-miterlimit:10;stroke-dasharray:none;stroke-opacity:1"
         d="M 3563.3,413.59 H 1539.06 c -240.25,0 -436.81,196.558 -436.81,436.805 v 0.003 c 0,240.242 196.56,436.802 436.81,436.802 H 3563.3 c 240.25,0 436.81,-196.56 436.81,-436.802 v -0.003 c 0,-240.247 -196.56,-436.805 -436.81,-436.805 z" /><path
         id="path18"
         style="fill:#ffffff;fill-opacity:1;fill-rule:nonzero;stroke:none"
         d="m 1755.57,899.504 c 5.17,0 9.24,1.57 12.19,4.711 2.96,3.14 4.44,7.207 4.44,12.195 v 157.18 c 0,4.99 -1.48,9.1 -4.44,12.33 -2.95,3.23 -7.02,4.85 -12.19,4.85 -5.37,0 -9.47,-1.62 -12.34,-4.85 -2.86,-3.23 -4.3,-7.34 -4.3,-12.33 V 916.41 c 0,-4.988 1.44,-9.055 4.3,-12.195 2.87,-3.141 6.97,-4.711 12.34,-4.711" /><path
         id="path20"
         style="fill:#ffffff;fill-opacity:1;fill-rule:nonzero;stroke:none"
         d="m 1981.06,1065.27 c 2.86,2.77 4.3,6.38 4.3,10.81 0,4.62 -1.44,8.23 -4.3,10.81 -2.87,2.59 -6.79,3.88 -11.78,3.88 h -131.39 c -4.81,0 -8.65,-1.29 -11.52,-3.88 -2.86,-2.58 -4.29,-6.19 -4.29,-10.81 0,-4.43 1.43,-8.04 4.29,-10.81 2.87,-2.77 6.71,-4.15 11.52,-4.15 h 49.06 V 916.41 c 0,-4.988 1.43,-9.055 4.29,-12.195 2.86,-3.141 6.98,-4.711 12.34,-4.711 5.36,0 9.47,1.57 12.33,4.711 2.87,3.14 4.3,7.207 4.3,12.195 v 144.71 h 49.07 c 4.99,0 8.91,1.38 11.78,4.15" /><path
         id="path22"
         style="fill:#ffffff;fill-opacity:1;fill-rule:nonzero;stroke:none"
         d="m 2182.99,904.215 c 2.95,-3.141 7.02,-4.711 12.2,-4.711 5.35,0 9.47,1.57 12.33,4.711 2.87,3.14 4.29,7.207 4.29,12.195 v 157.18 c 0,5.17 -1.34,9.33 -4.01,12.47 -2.68,3.14 -6.52,4.71 -11.5,4.71 -6.47,0 -11.93,-3.51 -16.36,-10.53 l -55.44,-89.537 -56.55,89.257 c -4.44,7.21 -10.17,10.81 -17.19,10.81 -4.62,0 -8.36,-1.43 -11.23,-4.29 -2.86,-2.87 -4.29,-7.26 -4.29,-13.18 V 916.41 c 0,-11.269 5.17,-16.906 15.52,-16.906 10.35,0 15.53,5.637 15.53,16.906 v 111.44 l 41.02,-64.311 c 4.07,-6.469 9.24,-9.699 15.53,-9.699 6.09,0 11.18,3.316 15.24,9.973 l 40.48,65.417 V 916.41 c 0,-4.988 1.47,-9.055 4.43,-12.195" /><path
         id="path24"
         style="fill:#ffffff;fill-opacity:1;fill-rule:nonzero;stroke:none"
         d="m 2405.42,945.656 c -9.7,-12.843 -23.61,-19.261 -41.72,-19.261 -17.92,0 -31.73,6.418 -41.44,19.261 -9.7,12.844 -14.55,29.336 -14.55,49.481 0,20.143 4.85,36.633 14.55,49.483 9.71,12.84 23.52,19.26 41.44,19.26 18.11,0 32.02,-6.42 41.72,-19.26 9.71,-12.85 14.56,-29.34 14.56,-49.483 0,-20.145 -4.85,-36.637 -14.56,-49.481 z m -41.72,147.884 c -29.01,0 -51.42,-9.23 -67.22,-27.71 -15.8,-18.48 -23.7,-42.05 -23.7,-70.693 0,-28.828 7.9,-52.438 23.7,-70.821 15.8,-18.386 38.21,-27.589 67.22,-27.589 29.02,0 51.47,9.203 67.36,27.589 15.9,18.383 23.85,41.993 23.85,70.821 0,28.643 -7.95,52.213 -23.85,70.693 -15.89,18.48 -38.34,27.71 -67.36,27.71" /><path
         id="path26"
         style="fill:#ffffff;fill-opacity:1;fill-rule:nonzero;stroke:none"
         d="m 1964.24,1014.98 c 0,2.53 -0.28,4.45 -0.86,5.77 -0.45,1.38 -1.46,3.27 -3.01,5.68 -0.34,0.52 -1.32,1.61 -2.92,3.27 -0.81,0.8 -1.58,1.59 -2.33,2.37 -0.74,0.77 -1.49,1.47 -2.23,2.11 -1.5,1.31 -2.53,1.97 -3.1,1.97 -0.92,0 -2.41,-0.45 -4.48,-1.37 -2.18,-0.86 -3.38,-1.64 -3.61,-2.33 -0.12,-0.57 -0.17,-1.4 -0.17,-2.49 0,-0.35 0.01,-0.79 0.04,-1.33 0.03,-0.55 0.07,-1.11 0.13,-1.68 0.06,-0.58 0.1,-1.15 0.13,-1.72 0.03,-0.58 0.04,-1.04 0.04,-1.38 0,-0.46 1.03,-1.58 3.1,-3.36 2.01,-1.72 3.73,-3.5 5.16,-5.33 1.44,-1.61 2.15,-3.42 2.15,-5.43 0,-2 -0.14,-3.84 -0.43,-5.5 -0.28,-1.66 -0.74,-3.23 -1.37,-4.691 -0.63,-1.465 -1.47,-2.867 -2.5,-4.219 -1.03,-1.347 -2.32,-2.707 -3.87,-4.086 -0.46,-0.343 -0.89,-0.816 -1.29,-1.421 -0.4,-0.602 -0.78,-1.247 -1.12,-1.934 -0.35,-0.688 -0.62,-1.391 -0.82,-2.109 -0.2,-0.715 -0.3,-1.364 -0.3,-1.938 0,-1.605 0.63,-2.926 1.89,-3.957 1.27,-1.031 2.76,-1.547 4.48,-1.547 3.21,0 6.08,2.293 8.6,6.883 2.58,4.531 4.65,9.809 6.2,15.839 1.61,6.08 2.44,10.72 2.49,13.93" /><path
         id="path28"
         style="fill:#ffffff;fill-opacity:1;fill-rule:nonzero;stroke:none"
         d="m 1978.56,974.801 c -1.64,-1.895 -3.14,-3.817 -4.52,-5.77 -0.86,-1.203 -1.68,-2.535 -2.45,-4 -0.78,-1.461 -1.47,-2.968 -2.07,-4.515 -0.6,-1.551 -1.09,-3.129 -1.46,-4.735 -0.37,-1.605 -0.56,-3.125 -0.56,-4.562 0,-2.867 0.72,-5.477 2.15,-7.828 1.44,-2.352 3.24,-4.575 5.42,-6.668 2.18,-2.094 4.53,-4.075 7.06,-5.942 2.52,-1.863 4.88,-3.726 7.06,-5.59 2.17,-1.867 3.98,-3.773 5.42,-5.722 1.43,-1.953 2.15,-4.047 2.15,-6.281 0,-1.782 -0.48,-3.801 -1.42,-6.071 -0.95,-2.265 -2.57,-4.316 -4.86,-6.152 -0.81,-0.629 -1.67,-1.188 -2.59,-1.676 -0.91,-0.488 -1.8,-0.891 -2.66,-1.207 -0.86,-0.312 -1.67,-0.559 -2.41,-0.73 -0.75,-0.172 -1.32,-0.258 -1.72,-0.258 -0.35,0 -0.79,-0.016 -1.34,-0.043 -0.54,-0.028 -1.09,-0.059 -1.63,-0.086 -0.55,-0.027 -1.05,-0.086 -1.51,-0.172 -0.46,-0.086 -0.77,-0.156 -0.94,-0.215 -1.5,-0.805 -2.64,-1.765 -3.45,-2.883 -0.8,-1.121 -1.2,-2.742 -1.2,-4.863 0,-2.293 0.46,-4.07 1.37,-5.336 0.92,-1.262 2.82,-1.891 5.68,-1.891 2.07,0 4.34,0.415 6.8,1.247 2.47,0.832 4.92,2.007 7.36,3.527 2.44,1.523 4.79,3.328 7.06,5.422 2.26,2.094 4.27,4.375 6.02,6.844 1.75,2.464 3.14,5.089 4.17,7.871 1.04,2.785 1.55,5.636 1.55,8.562 0,1.949 -0.34,3.817 -1.03,5.594 -0.69,1.777 -1.61,3.484 -2.75,5.121 -1.15,1.633 -2.46,3.215 -3.92,4.73 -1.46,1.524 -3,3.028 -4.6,4.52 -1.72,1.551 -3.46,3.039 -5.21,4.473 -1.75,1.437 -3.47,2.898 -5.16,4.39 -1.69,1.492 -3.32,3.039 -4.86,4.649 -1.55,1.605 -2.99,3.383 -4.31,5.332 1.78,1.953 3.7,3.859 5.77,5.722 2.06,1.868 4.47,4.118 7.23,6.754 1.78,1.782 3.31,3.731 4.6,5.856 1.29,2.121 1.94,3.984 1.94,5.594 0,4.585 -1.95,6.882 -5.85,6.882 -1.38,0 -2.87,-0.445 -4.48,-1.336 -1.61,-0.886 -3.24,-2.062 -4.9,-3.527 -1.67,-1.461 -3.32,-3.141 -4.95,-5.031" /><path
         id="path30"
         style="fill:#ffffff;fill-opacity:1;fill-rule:nonzero;stroke:none"
         d="m 2481.66,952.469 c 0.12,-1.121 0.26,-2.153 0.43,-3.098 0.17,-0.945 0.31,-2.023 0.43,-3.226 0.12,-1.207 0.22,-2.668 0.3,-4.391 0.09,-1.719 0.13,-3.899 0.13,-6.539 0,-1.09 -0.03,-2.481 -0.09,-4.176 -0.05,-1.691 -0.12,-3.539 -0.21,-5.547 -0.09,-2.008 -0.19,-4.09 -0.3,-6.238 -0.12,-2.152 -0.22,-4.234 -0.3,-6.238 -0.09,-2.012 -0.16,-3.86 -0.22,-5.551 -0.05,-1.695 -0.08,-3.086 -0.08,-4.176 0,-1.031 0.04,-2.437 0.13,-4.215 0.08,-1.777 0.33,-3.543 0.73,-5.293 0.4,-1.75 1.01,-3.269 1.85,-4.558 0.83,-1.293 1.99,-1.938 3.48,-1.938 1.03,0 1.88,0.098 2.54,0.301 0.66,0.199 1.25,0.473 1.76,0.816 0.52,0.344 1.01,0.778 1.47,1.293 0.46,0.516 1,1.118 1.63,1.805 0.86,5.223 1.89,10.141 3.1,14.758 1.2,4.617 2.67,8.992 4.39,13.125 1.72,4.129 3.77,8.043 6.15,11.742 2.38,3.703 5.24,7.246 8.56,10.629 4.25,4.305 8.34,7.531 12.27,9.684 3.92,2.152 7.75,3.8 11.48,4.945 1.55,0.515 3.12,0.988 4.69,1.422 1.58,0.429 3,0.902 4.26,1.418 1.27,0.515 2.28,1.078 3.06,1.679 0.77,0.602 1.16,1.332 1.16,2.196 0,1.316 -0.39,2.422 -1.16,3.308 -0.78,0.891 -1.74,1.621 -2.88,2.196 -1.15,0.574 -2.39,0.976 -3.71,1.207 -1.31,0.23 -2.49,0.343 -3.52,0.343 -5.28,0 -10.24,-1.246 -14.89,-3.746 -4.65,-2.492 -8.96,-5.707 -12.95,-9.636 -3.99,-3.926 -7.6,-8.301 -10.84,-13.122 -3.24,-4.82 -6.1,-9.582 -8.57,-14.285 -0.05,1.95 0.03,4.375 0.26,7.274 0.23,2.894 0.5,5.906 0.82,9.035 0.32,3.125 0.62,6.195 0.9,9.207 0.29,3.012 0.43,5.605 0.43,7.785 0,1.09 -0.2,2.168 -0.6,3.227 -0.4,1.062 -0.97,1.996 -1.72,2.797 -0.74,0.804 -1.63,1.464 -2.67,1.98 -1.03,0.516 -2.15,0.773 -3.35,0.773 -1.04,0 -2.08,-0.242 -3.14,-0.73 -1.07,-0.488 -2.01,-1.148 -2.84,-1.977 -0.84,-0.832 -1.51,-1.808 -2.03,-2.929 -0.51,-1.117 -0.77,-2.278 -0.77,-3.485 0,-2.41 0.04,-4.375 0.13,-5.894 0.08,-1.52 0.18,-2.836 0.3,-3.957" /><path
         id="path32"
         style="fill:#ffffff;fill-opacity:1;fill-rule:nonzero;stroke:none"
         d="m 2577.69,958.363 c 1.73,4.418 3.73,8.231 6.03,11.446 2.29,3.211 4.76,5.722 7.4,7.531 2.64,1.805 5.22,2.707 7.74,2.707 0.4,0 0.88,-0.102 1.42,-0.301 0.55,-0.199 1.06,-0.473 1.55,-0.816 0.49,-0.344 0.9,-0.774 1.25,-1.289 0.34,-0.52 0.51,-1.09 0.51,-1.723 0,-1.551 -0.19,-3.027 -0.6,-4.434 -0.4,-1.406 -1.1,-2.836 -2.1,-4.3 -1.01,-1.465 -2.37,-3.071 -4.09,-4.821 -1.72,-1.75 -3.9,-3.742 -6.54,-5.98 -1.21,-1.031 -2.57,-2.153 -4.09,-3.356 -1.52,-1.203 -3.04,-2.394 -4.56,-3.57 -1.52,-1.176 -2.94,-2.254 -4.26,-3.227 -1.32,-0.976 -2.38,-1.722 -3.19,-2.238 0.64,5.164 1.81,9.953 3.53,14.371 z m 64.03,-14.371 c -1.09,0 -2.56,-1.004 -4.39,-3.012 -3.27,-3.671 -6.79,-7.085 -10.54,-10.242 -3.76,-3.152 -7.63,-5.879 -11.62,-8.172 -3.99,-2.296 -8.06,-4.089 -12.22,-5.378 -4.16,-1.293 -8.25,-1.938 -12.26,-1.938 -3.16,0 -5.75,0.516 -7.79,1.551 -2.04,1.031 -3.66,2.336 -4.86,3.914 -1.21,1.578 -2.04,3.312 -2.5,5.207 -0.46,1.894 -0.69,3.699 -0.69,5.422 0,0.801 0.41,1.476 1.21,2.019 0.8,0.547 1.61,1.047 2.41,1.508 5.91,3.613 11.27,7.242 16.09,10.887 4.82,3.64 8.95,7.285 12.39,10.926 3.44,3.644 6.11,7.257 8,10.843 1.9,3.586 2.84,7.129 2.84,10.629 0,1.664 -0.33,3.356 -0.99,5.074 -0.66,1.723 -1.62,3.27 -2.88,4.649 -1.26,1.375 -2.81,2.508 -4.64,3.398 -1.84,0.891 -3.91,1.336 -6.2,1.336 -3.21,0 -6.18,-0.461 -8.91,-1.379 -2.72,-0.918 -5.23,-2.109 -7.53,-3.57 -2.29,-1.465 -4.39,-3.113 -6.28,-4.949 -1.89,-1.836 -3.61,-3.641 -5.16,-5.418 -2.47,-2.93 -4.63,-6.082 -6.5,-9.469 -1.86,-3.383 -3.41,-6.883 -4.65,-10.5 -1.23,-3.613 -2.16,-7.269 -2.79,-10.969 -0.63,-3.703 -0.95,-7.328 -0.95,-10.886 0,-11.188 2.47,-19.676 7.4,-25.473 4.94,-5.793 11.9,-8.691 20.91,-8.691 3.85,0 7.83,0.605 11.96,1.808 4.13,1.207 8.21,2.856 12.22,4.949 4.02,2.094 7.92,4.559 11.71,7.399 3.78,2.84 7.25,5.926 10.41,9.25 2.75,2.926 4.87,5.566 6.37,7.918 1.49,2.351 2.23,4.531 2.23,6.539 0,1.723 -0.14,2.957 -0.43,3.703 -0.28,0.746 -0.74,1.117 -1.37,1.117" /><path
         id="path34"
         style="fill:#ffffff;fill-opacity:1;fill-rule:nonzero;stroke:none"
         d="m 2987.95,972.777 c -0.15,-1.004 -0.32,-2.093 -0.52,-3.269 -0.2,-1.176 -0.42,-2.356 -0.65,-3.531 -0.23,-1.176 -0.43,-2.192 -0.6,-3.051 -0.63,-2.813 -1.82,-5.942 -3.57,-9.383 -1.75,-3.441 -3.81,-6.941 -6.2,-10.496 -2.38,-3.559 -4.96,-7.016 -7.74,-10.371 -2.78,-3.356 -5.51,-6.34 -8.18,-8.949 -2.66,-2.61 -5.14,-4.704 -7.44,-6.282 -2.29,-1.578 -4.16,-2.367 -5.59,-2.367 -1.38,0 -2.71,0.461 -4,1.379 -1.29,0.914 -1.94,2.266 -1.94,4.043 0,2.984 0.36,5.824 1.08,8.52 0.71,2.695 1.6,5.234 2.66,7.617 1.07,2.379 2.18,4.558 3.36,6.539 1.18,1.976 2.25,3.801 3.23,5.465 3.21,5.504 6.31,10.179 9.29,14.023 2.98,3.844 5.82,6.984 8.52,9.426 2.7,2.437 5.25,4.242 7.66,5.422 2.41,1.176 4.67,1.875 6.8,2.105 h 0.17 c 0.57,0 1.1,-0.215 1.59,-0.644 0.49,-0.43 0.9,-0.918 1.25,-1.461 0.34,-0.547 0.6,-1.078 0.77,-1.594 0.17,-0.516 0.26,-0.832 0.26,-0.832 0,-0.574 -0.07,-1.305 -0.21,-2.309 z m 154.59,-69.445 c 3.96,1.406 7.27,3.156 9.94,5.25 2.67,2.094 4.69,4.348 6.06,6.754 1.38,2.41 2.07,4.617 2.07,6.629 l -0.86,3.527 c -0.29,0 -0.66,-0.144 -1.12,-0.433 -0.46,-0.286 -0.92,-0.571 -1.38,-0.86 -0.57,-0.398 -1.15,-0.832 -1.72,-1.289 -2.35,-1.722 -4.46,-3.156 -6.32,-4.305 -1.87,-1.148 -3.7,-2.093 -5.51,-2.839 -1.81,-0.746 -3.7,-1.274 -5.68,-1.59 -1.98,-0.317 -4.26,-0.473 -6.84,-0.473 -4.02,0 -7.4,0.832 -10.15,2.496 -2.76,1.66 -4.97,4 -6.63,7.012 -1.67,3.012 -2.87,6.598 -3.62,10.758 -0.74,4.16 -1.11,8.73 -1.11,13.722 0,0.461 0.07,1.293 0.21,2.497 0.14,1.203 0.3,2.484 0.47,3.832 0.18,1.343 0.35,2.609 0.52,3.785 0.17,1.175 0.26,1.992 0.26,2.453 0,0.457 0.01,0.93 0.04,1.418 0.03,0.488 0.04,0.961 0.04,1.422 0,1.144 -0.22,2.121 -0.68,2.925 -0.46,0.801 -1.52,1.204 -3.19,1.204 -2.41,0 -4.67,-0.387 -6.8,-1.161 -2.12,-0.777 -4.13,-1.851 -6.02,-3.226 -1.89,-1.379 -3.73,-3.016 -5.51,-4.906 -1.77,-1.895 -3.53,-3.989 -5.25,-6.282 -1.32,-1.722 -3.11,-3.859 -5.37,-6.414 -2.27,-2.55 -4.64,-5.191 -7.1,-7.914 -2.47,-2.726 -4.85,-5.367 -7.15,-7.918 -2.29,-2.554 -4.07,-4.691 -5.33,-6.41 0.29,2.352 0.47,4.359 0.56,6.024 0.08,1.664 0.23,3.457 0.43,5.378 0.2,1.922 0.51,4.215 0.95,6.883 0.43,2.668 1.13,6.211 2.1,10.629 0.46,2.121 0.91,4.242 1.34,6.367 0.43,2.121 0.8,4.043 1.12,5.766 0.31,1.719 0.56,3.141 0.73,4.258 0.17,1.121 0.26,1.765 0.26,1.765 0,0.801 0.05,1.536 0.17,2.368 0.11,0.832 0.17,1.675 0.17,2.539 0,0.742 -0.07,1.476 -0.22,2.191 -0.14,0.719 -0.44,1.363 -0.9,1.938 -0.46,0.574 -1.09,1.031 -1.89,1.375 -0.8,0.343 -1.84,0.515 -3.1,0.515 -1.72,0 -3.2,-0.371 -4.43,-1.117 -1.23,-0.746 -2.27,-1.734 -3.1,-2.969 -0.83,-1.234 -1.45,-2.652 -1.85,-4.258 -0.4,-1.609 -0.6,-3.269 -0.6,-4.992 0,-0.437 -0.05,-0.828 -0.05,-1.261 -5.14,-5.149 -10.18,-10.321 -15.1,-15.52 -5.05,-5.332 -10.38,-10.238 -16,-14.715 -2.53,-2.008 -4.76,-3.57 -6.72,-4.687 -1.94,-1.121 -3.9,-1.68 -5.85,-1.68 -1.6,0 -3.01,0.805 -4.21,2.41 -1.21,1.606 -2.2,3.602 -2.97,5.981 -0.78,2.379 -1.35,4.89 -1.72,7.531 -0.38,2.637 -0.56,4.988 -0.56,7.055 0,3.156 0.24,5.953 0.73,8.39 0.49,2.438 1.02,4.617 1.59,6.539 0.58,1.922 1.11,3.614 1.59,5.078 0.49,1.461 0.74,2.797 0.74,4 0,0.575 -0.31,1.176 -0.91,1.809 -0.6,0.629 -1.3,1.273 -2.11,1.934 -0.8,0.66 -1.58,1.304 -2.32,1.937 -0.75,0.633 -1.23,1.203 -1.46,1.723 -0.4,0.8 -0.81,1.59 -1.21,2.367 -0.4,0.773 -0.86,1.476 -1.37,2.105 -0.52,0.633 -1.14,1.149 -1.86,1.551 -0.71,0.402 -1.56,0.602 -2.53,0.602 -5.22,0 -10.31,-1.02 -15.28,-3.055 -4.96,-2.035 -9.71,-5.207 -14.24,-9.508 -3.9,-3.73 -7.66,-8.191 -11.27,-13.383 -3.36,-4.828 -6.33,-9.859 -8.97,-15.058 -0.38,-0.352 -0.69,-0.613 -1.1,-0.988 -2.81,-2.641 -5.28,-4.965 -7.4,-6.973 -2.12,-2.008 -4.26,-3.844 -6.41,-5.508 -2.15,-1.664 -4.48,-3.269 -6.97,-4.816 -2.5,-1.551 -5.47,-3.157 -8.91,-4.821 -6.48,-3.156 -13.25,-4.73 -20.31,-4.73 -1.54,0 -2.82,0.801 -3.83,2.406 -1,1.609 -1.82,3.672 -2.45,6.195 -0.63,2.528 -1.14,5.336 -1.55,8.434 -0.4,3.098 -0.77,6.109 -1.12,9.035 -0.4,3.445 -0.86,6.715 -1.37,9.813 -0.52,3.097 -1.35,6.195 -2.5,9.293 -0.28,0.8 -0.71,1.507 -1.29,2.109 -0.57,0.602 -1.19,1.117 -1.85,1.547 -0.66,0.43 -1.32,0.762 -1.98,0.988 -0.66,0.231 -1.19,0.348 -1.59,0.348 -2.18,0 -4.47,-0.52 -6.88,-1.551 -2.41,-1.031 -4.81,-2.352 -7.19,-3.957 -2.38,-1.605 -4.66,-3.387 -6.84,-5.336 -2.18,-1.949 -4.16,-3.816 -5.94,-5.594 -1.38,-1.433 -2.79,-2.98 -4.26,-4.648 -1.46,-1.664 -2.9,-3.324 -4.3,-4.988 -1.41,-1.664 -2.75,-3.317 -4.04,-4.95 -1.3,-1.632 -2.49,-3.14 -3.58,-4.515 -1.09,-1.379 -2.19,-2.887 -3.31,-4.52 -1.12,-1.636 -2.19,-3.199 -3.23,-4.687 -1.03,-1.492 -1.95,-2.871 -2.75,-4.133 -0.8,-1.262 -1.46,-2.207 -1.98,-2.84 h -0.34 c -0.29,0 -0.62,0.231 -0.99,0.688 -0.38,0.461 -0.56,0.863 -0.56,1.207 0,2.293 0.26,5.062 0.77,8.3 0.52,3.243 0.98,6.989 1.38,11.231 0.23,2.812 0.46,5.437 0.69,7.875 0.23,2.437 0.47,4.848 0.73,7.226 0.26,2.383 0.52,4.778 0.77,7.188 0.26,2.41 0.48,4.988 0.65,7.742 0.17,2.41 0.37,5.152 0.6,8.219 0.23,3.07 0.5,6.183 0.82,9.34 0.32,3.152 0.64,6.25 0.99,9.293 0.34,3.037 0.74,5.737 1.2,8.087 0.12,0.63 0.33,1.57 0.65,2.8 0.31,1.23 0.64,2.52 0.99,3.87 0.34,1.35 0.64,2.65 0.9,3.91 0.26,1.27 0.39,2.27 0.39,3.02 0,2.35 -0.67,4.18 -2.02,5.5 -1.35,1.32 -2.86,1.98 -4.52,1.98 -0.8,0 -1.59,-0.18 -2.37,-0.55 -0.77,-0.38 -1.49,-0.82 -2.15,-1.34 -0.66,-0.52 -1.24,-1.09 -1.76,-1.72 -0.52,-0.63 -0.89,-1.21 -1.12,-1.72 -0.75,-1.61 -1.36,-3.09 -1.85,-4.43 -0.49,-1.35 -0.86,-2.7 -1.12,-4.05 -0.26,-1.35 -0.46,-2.71 -0.6,-4.09 -0.15,-1.37 -0.25,-2.86 -0.3,-4.47 -0.06,-1.43 -0.13,-3.2 -0.22,-5.29 -0.08,-2.097 -0.18,-4.335 -0.3,-6.714 -0.01,-0.149 -0.01,-0.313 -0.02,-0.461 l -0.02,-0.008 c -1.35,-0.75 -2.9,-1.582 -4.65,-2.5 -1.75,-0.918 -3.66,-1.867 -5.72,-2.84 -2.12,-0.977 -4.62,-1.863 -7.49,-2.668 -2.87,-0.805 -5.85,-1.535 -8.95,-2.195 -3.1,-0.66 -6.17,-1.246 -9.2,-1.762 -3.05,-0.519 -5.81,-0.949 -8.31,-1.293 -2.5,-0.344 -4.55,-0.601 -6.15,-0.773 -1.61,-0.172 -2.53,-0.258 -2.76,-0.258 -0.8,0.055 -1.37,0.316 -1.72,0.773 -0.34,0.461 -0.51,1.348 -0.51,2.668 0,0.746 0.07,1.594 0.21,2.539 0.15,0.946 0.37,2.196 0.69,3.742 0.32,1.551 0.75,3.473 1.29,5.766 0.55,2.293 1.22,5.192 2.02,8.694 0.12,0.46 0.29,1.27 0.52,2.45 0.23,1.18 0.47,2.51 0.73,4 0.26,1.49 0.55,3.07 0.86,4.74 0.32,1.66 0.59,3.21 0.82,4.64 0.23,1.43 0.42,2.66 0.56,3.66 0.14,1 0.21,1.65 0.21,1.93 0,0.41 -0.17,1.01 -0.51,1.81 -0.35,0.81 -0.82,1.6 -1.42,2.37 -0.61,0.77 -1.31,1.45 -2.11,2.02 -0.8,0.57 -1.64,0.86 -2.5,0.86 -0.4,0 -1,-0.26 -1.8,-0.78 -0.81,-0.51 -1.61,-1.16 -2.41,-1.93 -0.81,-0.77 -1.51,-1.62 -2.11,-2.54 -0.6,-0.92 -0.9,-1.75 -0.9,-2.49 -0.06,-0.81 -0.19,-2.03 -0.39,-3.66 -0.2,-1.64 -0.47,-3.5 -0.82,-5.59 -0.34,-2.1 -0.72,-4.31 -1.12,-6.63 -0.4,-2.32 -0.8,-4.58 -1.2,-6.75 -0.4,-2.187 -0.78,-4.163 -1.12,-5.945 -0.34,-1.777 -0.63,-3.152 -0.86,-4.128 -1.04,-4.36 -2.21,-7.602 -3.53,-9.723 -1.32,-2.125 -2.58,-3.387 -3.79,-3.789 -0.57,-0.168 -1.57,-0.344 -3.01,-0.516 -1.43,-0.172 -3.1,-0.344 -4.99,-0.515 -1.89,-0.172 -3.93,-0.317 -6.11,-0.43 -2.18,-0.113 -4.27,-0.215 -6.28,-0.301 -2.01,-0.086 -3.84,-0.156 -5.51,-0.215 -1.66,-0.058 -2.92,-0.086 -3.78,-0.086 -0.81,0 -1.62,-0.129 -2.46,-0.39 -0.83,-0.258 -1.58,-0.645 -2.23,-1.16 -0.66,-0.516 -1.21,-1.192 -1.64,-2.024 -0.43,-0.832 -0.64,-1.82 -0.64,-2.969 0,-0.57 0.21,-1.273 0.64,-2.105 0.43,-0.832 0.99,-1.637 1.68,-2.41 0.69,-0.774 1.48,-1.449 2.36,-2.024 0.89,-0.574 1.8,-0.859 2.72,-0.859 0.28,0 1.03,0.043 2.23,0.129 1.21,0.086 2.63,0.172 4.26,0.258 1.64,0.086 3.39,0.203 5.25,0.343 1.87,0.145 3.63,0.258 5.29,0.344 1.67,0.086 3.1,0.172 4.31,0.262 1.2,0.086 1.95,0.129 2.23,0.129 0.29,0 0.59,0.012 0.91,0.043 0.31,0.027 0.64,0.043 0.99,0.043 0.97,0 1.93,-0.145 2.88,-0.434 0.95,-0.285 1.65,-0.945 2.11,-1.976 -0.69,-5.68 -1.51,-10.914 -2.45,-15.707 -0.95,-4.79 -1.87,-9.407 -2.76,-13.856 -0.89,-4.445 -1.65,-8.816 -2.28,-13.121 -0.63,-4.301 -0.94,-8.777 -0.94,-13.422 0,-0.402 0.08,-1.176 0.25,-2.324 0.17,-1.149 0.52,-2.324 1.04,-3.527 0.51,-1.207 1.23,-2.282 2.15,-3.231 0.91,-0.945 2.09,-1.418 3.53,-1.418 0.34,0 0.93,0.231 1.76,0.688 0.83,0.461 1.68,0.992 2.54,1.593 0.86,0.602 1.62,1.219 2.28,1.852 0.66,0.629 1.02,1.117 1.07,1.461 0.12,1.203 0.19,2.277 0.22,3.226 0.03,0.946 0.04,1.879 0.04,2.797 0,0.918 -0.01,1.852 -0.04,2.797 -0.03,0.945 -0.02,2.02 0.04,3.227 0.06,2.179 0.18,4.246 0.35,6.195 0.17,1.949 0.38,3.973 0.64,6.066 0.26,2.094 0.57,4.332 0.95,6.711 0.37,2.383 0.82,5.121 1.33,8.219 0.12,0.688 0.29,1.809 0.52,3.356 0.23,1.55 0.49,3.285 0.77,5.207 0.29,1.922 0.59,3.902 0.91,5.937 0.31,2.035 0.64,3.887 0.99,5.551 0.34,1.664 0.67,3.043 0.98,4.133 0.32,1.086 0.62,1.633 0.91,1.633 4.65,0.343 9.28,0.875 13.9,1.589 4.61,0.719 9.06,1.567 13.33,2.539 4.28,0.977 8.34,2.094 12.18,3.36 3.84,1.262 7.34,2.582 10.5,3.957 2.18,0.976 4.24,2.168 6.2,3.57 0.52,0.375 0.97,0.766 1.46,1.149 -0.03,-0.594 -0.06,-1.258 -0.09,-1.836 -0.11,-2.266 -0.23,-4.348 -0.34,-6.239 -0.12,-1.894 -0.2,-3.414 -0.26,-4.562 -0.23,-3.555 -0.55,-7.543 -0.95,-11.961 -0.4,-4.414 -0.83,-8.934 -1.29,-13.555 -0.46,-4.617 -0.94,-9.191 -1.46,-13.722 -0.52,-4.532 -0.98,-8.692 -1.38,-12.477 -0.23,-1.953 -0.51,-4.059 -0.86,-6.324 -0.34,-2.27 -0.69,-4.461 -1.03,-6.586 -0.35,-2.121 -0.65,-4.027 -0.9,-5.723 -0.26,-1.691 -0.39,-2.91 -0.39,-3.656 0,-0.859 0.24,-1.734 0.73,-2.625 0.49,-0.887 1.12,-1.676 1.89,-2.363 0.78,-0.692 1.64,-1.25 2.58,-1.68 0.95,-0.434 1.88,-0.645 2.8,-0.645 0.4,0 1.15,0.301 2.24,0.903 1.09,0.601 2.12,1.648 3.1,3.14 1.78,3.27 3.86,7.098 6.23,11.489 2.39,4.386 5.04,8.761 7.96,13.121 3.33,5.051 6.92,10.012 10.76,14.887 3.85,4.878 7.6,9.253 11.27,13.125 3.67,3.871 7.06,6.996 10.16,9.378 3.1,2.379 5.54,3.571 7.31,3.571 0.46,0 0.88,-0.414 1.25,-1.246 0.37,-0.832 0.7,-1.907 0.99,-3.227 0.29,-1.32 0.55,-2.785 0.77,-4.391 0.24,-1.605 0.42,-3.167 0.56,-4.687 0.15,-1.523 0.28,-2.914 0.39,-4.176 0.12,-1.262 0.2,-2.207 0.26,-2.84 0.46,-4.015 1.06,-7.773 1.81,-11.273 0.74,-3.496 1.86,-6.652 3.35,-9.465 1.49,-2.812 3.55,-4.848 6.15,-6.109 2.61,-1.262 5.61,-1.895 9,-1.895 4.42,0.059 8.76,0.832 13.03,2.324 4.28,1.493 8.41,3.457 12.4,5.895 3.98,2.437 7.84,5.207 11.57,8.305 2.27,1.89 4.45,3.851 6.57,5.847 -1.2,-4.433 -1.84,-8.465 -1.84,-12.043 0,-2.582 0.48,-4.875 1.42,-6.886 0.95,-2.004 2.2,-3.7 3.75,-5.075 1.55,-1.375 3.34,-2.425 5.37,-3.14 2.04,-0.719 4.15,-1.078 6.33,-1.078 0.97,0 2.48,0.546 4.52,1.636 2.03,1.09 4.27,2.496 6.71,4.215 2.44,1.723 4.88,3.629 7.31,5.727 2.44,2.093 4.55,4.14 6.33,6.148 0.51,0.574 1.22,1.438 2.11,2.582 0.89,1.149 1.89,2.41 3.01,3.789 1.12,1.375 2.25,2.793 3.4,4.258 1.14,1.461 2.22,2.781 3.22,3.957 1.01,1.18 1.88,2.141 2.63,2.887 0.75,0.746 1.23,1.117 1.46,1.117 0.34,0 0.66,-0.328 0.95,-0.988 0.28,-0.664 0.54,-1.465 0.77,-2.41 0.23,-0.95 0.46,-1.981 0.69,-3.102 0.23,-1.117 0.49,-2.105 0.78,-2.965 0.51,-1.609 1.24,-3.156 2.19,-4.648 0.95,-1.492 2.04,-2.797 3.27,-3.914 1.23,-1.121 2.55,-2.024 3.96,-2.711 1.4,-0.688 2.82,-1.035 4.26,-1.035 3.32,0 7.07,1.062 11.23,3.183 4.16,2.125 8.33,5.078 12.52,8.867 4.01,3.614 7.99,7.442 11.91,11.489 3.85,3.953 7.54,8.324 11.08,13.074 -0.14,-1.879 -0.29,-3.809 -0.45,-5.805 -0.4,-5.851 -0.94,-10.812 -1.63,-14.887 -0.69,-4.074 -1.32,-7.628 -1.89,-10.671 -0.18,-1.09 -0.38,-2.321 -0.61,-3.7 -0.23,-1.379 -0.44,-2.765 -0.64,-4.172 -0.2,-1.406 -0.36,-2.785 -0.48,-4.132 -0.11,-1.348 -0.17,-2.539 -0.17,-3.571 0,-0.746 0.2,-1.492 0.6,-2.238 0.41,-0.746 0.98,-1.422 1.72,-2.023 0.75,-0.602 1.64,-1.086 2.67,-1.461 1.04,-0.371 2.16,-0.559 3.36,-0.559 1.32,0 2.39,0.188 3.23,0.559 0.83,0.375 1.62,1.004 2.36,1.894 0.75,0.887 1.55,2.063 2.41,3.528 0.86,1.461 2.01,3.285 3.44,5.464 0.81,1.204 2.06,2.899 3.75,5.075 1.69,2.179 3.61,4.547 5.76,7.101 2.15,2.551 4.42,5.207 6.8,7.961 2.38,2.75 4.68,5.32 6.89,7.699 2.2,2.379 4.2,4.446 5.98,6.196 1.77,1.75 3.12,2.914 4.04,3.484 0,-8.203 0.7,-15.258 2.11,-21.168 1.4,-5.906 3.47,-10.785 6.19,-14.629 2.73,-3.844 6.07,-6.668 10.03,-8.476 3.96,-1.805 8.52,-2.711 13.68,-2.711 5.11,0 9.64,0.703 13.6,2.109" /><path
         id="path36"
         style="fill:#ffffff;fill-opacity:1;fill-rule:nonzero;stroke:none"
         d="m 1871.13,802.668 c -5.21,0 -9.17,-1.629 -11.87,-4.887 -2.69,-3.258 -4.04,-7.398 -4.04,-12.422 V 687.09 c 0,-33.309 -13.68,-49.969 -41.04,-49.969 -27.36,0 -41.04,16.469 -41.04,49.41 v 98.828 c 0,5.024 -1.49,9.164 -4.46,12.422 -2.98,3.258 -7.17,4.887 -12.57,4.887 -5.21,0 -9.26,-1.629 -12.14,-4.887 -2.89,-3.258 -4.33,-7.398 -4.33,-12.422 V 687.93 c 0,-24.2 5.82,-43.692 17.45,-58.489 11.63,-14.793 30.57,-22.191 56.81,-22.191 13.59,0 25.31,2.141 35.18,6.422 9.86,4.277 17.49,10.277 22.89,18.008 5.39,7.718 9.3,16.23 11.72,25.539 2.42,9.312 3.63,19.73 3.63,31.269 v 96.871 c 0,5.024 -1.39,9.164 -4.19,12.422 -2.79,3.258 -6.79,4.887 -12,4.887" /><path
         id="path38"
         style="fill:#ffffff;fill-opacity:1;fill-rule:nonzero;stroke:none"
         d="m 2095.87,802.668 c -10.05,0 -15.08,-5.77 -15.08,-17.309 V 669.5 l -92.13,123.953 c -4.46,6.145 -9.95,9.215 -16.47,9.215 -10.42,0 -15.63,-5.863 -15.63,-17.59 V 627.07 c 0,-11.351 5.02,-17.031 15.07,-17.031 10.24,0 15.36,5.68 15.36,17.031 v 115.02 l 93.24,-123.668 c 4.47,-5.594 9.49,-8.383 15.08,-8.383 4.84,0 8.7,1.582 11.58,4.75 2.89,3.16 4.33,7.25 4.33,12.281 v 158.289 c 0,11.539 -5.12,17.309 -15.35,17.309" /><path
         id="path40"
         style="fill:#ffffff;fill-opacity:1;fill-rule:nonzero;stroke:none"
         d="m 2197.21,802.668 c -5.4,0 -9.54,-1.629 -12.42,-4.887 -2.89,-3.258 -4.33,-7.398 -4.33,-12.422 V 627.07 c 0,-5.031 1.44,-9.121 4.33,-12.281 2.88,-3.168 7.02,-4.75 12.42,-4.75 5.21,0 9.31,1.582 12.28,4.75 2.98,3.16 4.47,7.25 4.47,12.281 v 158.289 c 0,5.024 -1.49,9.164 -4.47,12.422 -2.97,3.258 -7.07,4.887 -12.28,4.887" /><path
         id="path42"
         style="fill:#ffffff;fill-opacity:1;fill-rule:nonzero;stroke:none"
         d="m 2421.94,801.27 c -10.61,4.281 -18.33,-0.461 -23.17,-14.235 L 2351.03,657.5 2299.1,788.43 c -5.02,12.656 -12.74,16.843 -23.16,12.562 -5.03,-1.859 -8.1,-5.445 -9.22,-10.746 -1.12,-5.305 -0.56,-10.098 1.68,-14.379 l 64.48,-156.336 c 3.54,-8.191 8.94,-12.281 16.2,-12.281 8,0 13.68,4.281 17.03,12.84 l 61.69,158.012 c 4.84,11.91 2.89,19.632 -5.86,23.168" /><path
         id="path44"
         style="fill:#ffffff;fill-opacity:1;fill-rule:nonzero;stroke:none"
         d="m 2593.35,639.91 h -80.68 v 54.16 h 62.26 c 5.02,0 8.98,1.399 11.86,4.192 2.89,2.789 4.33,6.418 4.33,10.883 0,4.652 -1.44,8.285 -4.33,10.886 -2.88,2.61 -6.84,3.91 -11.86,3.91 h -62.26 v 48.856 h 77.89 c 4.84,0 8.7,1.348 11.59,4.047 2.88,2.699 4.33,6.281 4.33,10.75 0,4.652 -1.45,8.328 -4.33,11.027 -2.89,2.699 -6.75,4.047 -11.59,4.047 h -94.36 c -5.39,0 -9.58,-1.629 -12.56,-4.887 -2.98,-3.258 -4.47,-7.398 -4.47,-12.422 V 627.352 c 0,-5.032 1.54,-9.172 4.61,-12.422 3.07,-3.258 7.3,-4.891 12.7,-4.891 h 96.87 c 4.84,0 8.7,1.352 11.59,4.051 2.89,2.699 4.33,6.281 4.33,10.75 0,4.648 -1.44,8.32 -4.33,11.019 -2.89,2.7 -6.75,4.051 -11.59,4.051" /><path
         id="path46"
         style="fill:#ffffff;fill-opacity:1;fill-rule:nonzero;stroke:none"
         d="m 2746.9,719.336 c -6.89,-5.117 -17.5,-7.68 -31.83,-7.68 -6.88,0 -13.21,0.375 -18.98,1.117 v 59.743 c 9.31,1.117 16.38,1.675 21.22,1.675 26.61,0 39.92,-10.05 39.92,-30.148 0,-11.355 -3.45,-19.59 -10.33,-24.707 z m 10.33,-26.106 c 10.79,3.719 19.35,10.145 25.68,19.262 6.33,9.121 9.49,20.289 9.49,33.504 0,38.711 -24.1,58.067 -72.3,58.067 -16.94,0 -30.9,-1.211 -41.88,-3.629 -10.42,-2.235 -15.63,-8.657 -15.63,-19.262 V 627.07 c 0,-5.031 1.44,-9.121 4.33,-12.281 2.88,-3.168 7.02,-4.75 12.42,-4.75 5.21,0 9.31,1.582 12.28,4.75 2.98,3.16 4.47,7.25 4.47,12.281 v 60.578 c 5.03,-0.738 10.51,-1.117 16.47,-1.117 5.58,0 9.59,0.188 12,0.559 l 39.65,-65.328 c 7.07,-11.723 15.54,-14.793 25.4,-9.211 4.28,2.609 6.7,6.469 7.26,11.59 0.56,5.121 -0.84,10.187 -4.19,15.211 l -35.45,53.878" /><path
         id="path48"
         style="fill:#ffffff;fill-opacity:1;fill-rule:nonzero;stroke:none"
         d="m 2962.01,710.82 c -7.17,3.723 -14.99,7.258 -23.46,10.61 -8.46,3.347 -16.28,6.14 -23.44,8.375 -7.17,2.234 -13.17,5.445 -18.01,9.629 -4.84,4.187 -7.26,9.261 -7.26,15.214 0,13.403 9.21,20.102 27.64,20.102 10.98,0 22.43,-2.512 34.34,-7.535 13.58,-5.957 22.42,-4.934 26.52,3.07 4.84,9.488 1.58,17.309 -9.77,23.449 -13.59,7.817 -29.78,11.727 -48.58,11.727 -20.84,0 -36.71,-4.652 -47.6,-13.961 -10.88,-9.305 -16.33,-21.961 -16.33,-37.969 0,-13.023 3.35,-23.726 10.05,-32.101 6.7,-8.375 14.84,-14.473 24.43,-18.285 9.58,-3.817 19.12,-7.215 28.61,-10.196 9.5,-2.969 17.59,-6.879 24.29,-11.719 6.7,-4.839 10.05,-11.171 10.05,-18.98 0,-8.012 -3.02,-14.059 -9.07,-18.148 -6.05,-4.09 -14.28,-6.141 -24.71,-6.141 -13.03,0 -26.98,3.437 -41.87,10.328 -12.29,5.02 -20.29,3.91 -24.01,-3.348 -2.61,-4.839 -2.84,-9.589 -0.7,-14.242 2.14,-4.648 6.37,-8.66 12.7,-12.008 14.89,-7.632 32.57,-11.441 53.04,-11.441 22.9,0 40.02,5.352 51.37,16.051 11.36,10.699 17.03,25.078 17.03,43.129 0,10.609 -2.42,19.73 -7.26,27.359 -4.84,7.633 -10.84,13.309 -18,17.031" /><path
         id="path50"
         style="fill:#ffffff;fill-opacity:1;fill-rule:nonzero;stroke:none"
         d="m 3057.63,802.668 c -5.4,0 -9.54,-1.629 -12.42,-4.887 -2.89,-3.258 -4.33,-7.398 -4.33,-12.422 V 627.07 c 0,-5.031 1.44,-9.121 4.33,-12.281 2.88,-3.168 7.02,-4.75 12.42,-4.75 5.21,0 9.3,1.582 12.28,4.75 2.98,3.16 4.47,7.25 4.47,12.281 v 158.289 c 0,5.024 -1.49,9.164 -4.47,12.422 -2.98,3.258 -7.07,4.887 -12.28,4.887" /><path
         id="path52"
         style="fill:#ffffff;fill-opacity:1;fill-rule:nonzero;stroke:none"
         d="m 3271.75,802.668 h -132.32 c -4.84,0 -8.71,-1.305 -11.59,-3.91 -2.89,-2.606 -4.33,-6.235 -4.33,-10.887 0,-4.469 1.44,-8.098 4.33,-10.887 2.88,-2.793 6.75,-4.187 11.59,-4.187 h 49.41 V 627.07 c 0,-5.031 1.44,-9.121 4.32,-12.281 2.89,-3.168 7.03,-4.75 12.43,-4.75 5.39,0 9.54,1.582 12.42,4.75 2.88,3.16 4.33,7.25 4.33,12.281 v 145.727 h 49.41 c 5.03,0 8.98,1.394 11.87,4.187 2.88,2.789 4.32,6.418 4.32,10.887 0,4.652 -1.44,8.281 -4.32,10.887 -2.89,2.605 -6.84,3.91 -11.87,3.91" /><path
         id="path54"
         style="fill:#ffffff;fill-opacity:1;fill-rule:nonzero;stroke:none"
         d="m 3479.73,799.875 c -5.58,2.793 -10.32,3.258 -14.23,1.395 -3.91,-1.86 -7.45,-5.211 -10.61,-10.047 l -43.55,-67.559 -44.95,67.559 c -3.35,5.211 -7.17,8.746 -11.44,10.605 -4.28,1.863 -9.21,1.211 -14.8,-1.953 -8.93,-6.328 -9.49,-15.539 -1.68,-27.637 l 55,-78.726 v -66.16 c 0,-5.032 1.44,-9.122 4.33,-12.282 2.88,-3.172 7.03,-4.75 12.42,-4.75 5.21,0 9.31,1.578 12.28,4.75 2.98,3.16 4.47,7.25 4.47,12.282 v 67.558 l 54.16,80.957 c 2.98,4.465 4.51,8.746 4.61,12.84 0.09,4.098 -1.91,7.82 -6.01,11.168" /><path
         id="path56"
         style="fill:#ffffff;fill-opacity:1;fill-rule:nonzero;stroke:none"
         d="m 3262.82,957.809 c -0.75,-2.579 -1.74,-5.204 -2.95,-7.868 -1.22,-2.668 -2.57,-5.277 -4.05,-7.828 -1.48,-2.55 -2.94,-4.898 -4.39,-7.043 -1.33,-2.031 -3.04,-4.16 -5.13,-6.39 -2.09,-2.235 -4.22,-4.305 -6.39,-6.219 -2.18,-1.914 -4.22,-3.492 -6.13,-4.738 -1.91,-1.246 -3.36,-1.868 -4.35,-1.868 -2.9,0 -4.87,0.825 -5.91,2.477 -1.05,1.652 -1.57,3.84 -1.57,6.566 0,1.852 0.32,3.957 0.96,6.301 0.64,2.352 1.49,4.813 2.57,7.395 1.07,2.578 2.3,5.23 3.69,7.957 1.39,2.722 2.85,5.39 4.39,8 1.54,2.605 3.07,5.097 4.61,7.476 1.54,2.375 3,4.493 4.39,6.348 0.7,0.984 1.59,2 2.7,3.043 1.1,1.043 2.31,2 3.65,2.871 1.33,0.867 2.74,1.578 4.22,2.133 1.48,0.547 2.94,0.824 4.39,0.824 1.68,0 3.17,-0.957 4.48,-2.871 1.3,-1.914 1.95,-5.043 1.95,-9.391 0,-2.203 -0.37,-4.593 -1.13,-7.175 z m 46.53,-28.649 c -0.47,0 -0.93,-0.32 -1.4,-0.961 -0.46,-0.636 -1.01,-1.359 -1.65,-2.172 -2.2,-2.957 -4.71,-5.187 -7.52,-6.695 -2.81,-1.512 -6.42,-2.262 -10.83,-2.262 -1.85,0 -3.6,0.438 -5.26,1.305 -1.65,0.871 -3.09,2.449 -4.3,4.738 -1.22,2.293 -2.18,5.407 -2.87,9.348 -0.7,3.941 -1.04,9.016 -1.04,15.219 0,2.203 0.2,4.636 0.6,7.304 0.41,2.664 0.86,5.231 1.35,7.696 0.49,2.465 0.94,4.621 1.35,6.476 0.28,1.309 0.43,2.18 0.52,2.856 l 0.01,-0.004 c 0,0 0.04,0.246 0.06,0.644 l 0.02,0.157 -0.01,0.082 c 0.08,2.496 -0.49,9.761 -9.04,15.222 -5.09,3.254 -11.68,1.953 -17.12,-0.234 -1.56,-0.359 -3.39,-1.152 -5.53,-2.418 -1.08,-0.637 -2.2,-1.453 -3.32,-2.258 -0.46,-0.308 -0.83,-0.558 -1.05,-0.719 -0.1,-0.074 -0.19,-0.129 -0.29,-0.203 l -0.01,-0.011 v 0 c -1.55,-1.192 -3.14,-2.528 -4.76,-4.024 -3.31,-3.043 -6.56,-6.582 -9.74,-10.609 -3.19,-4.032 -5.95,-8.305 -8.26,-12.824 -2.09,-4 -3.84,-7.684 -5.26,-11.047 -1.43,-3.36 -2.58,-6.477 -3.48,-9.344 -0.9,-2.871 -1.54,-5.555 -1.91,-8.047 -0.38,-2.492 -0.57,-4.871 -0.57,-7.129 0,-2.262 0.38,-4.406 1.13,-6.437 0.75,-2.028 1.78,-3.825 3.09,-5.391 1.3,-1.566 2.81,-2.813 4.52,-3.738 1.71,-0.93 3.49,-1.395 5.35,-1.395 2.78,0 5.98,0.914 9.61,2.742 3.62,1.828 7.3,4.203 11.04,7.129 3.74,2.926 7.36,6.219 10.87,9.871 3.5,3.653 6.53,7.332 9.09,11.043 0.75,-4 1.72,-7.797 2.91,-11.39 1.19,-3.594 2.69,-6.742 4.52,-9.434 1.83,-2.699 4,-4.828 6.52,-6.394 2.52,-1.567 5.53,-2.348 9,-2.348 2.67,0 5.25,0.492 7.74,1.48 2.49,0.985 4.8,2.246 6.91,3.782 2.12,1.535 4.03,3.246 5.74,5.129 1.71,1.886 3.09,3.726 4.13,5.523 0.82,1.219 1.41,2.422 1.79,3.609 0.37,1.188 0.56,2.246 0.56,3.176 0,0.692 -0.33,1.36 -1,1.996 -0.66,0.641 -1.4,0.961 -2.21,0.961" /></g></g></svg>